<svg viewBox="0 0 400 400" xmlns="http://www.w3.org/2000/svg">
  <defs>
    <linearGradient id="scarfBg" x1="0" y1="0" x2="0" y2="1">
      <stop offset="0%" stop-color="#EDE3D0"/>
      <stop offset="100%" stop-color="#DCCFB4"/>
    </linearGradient>
    <linearGradient id="scarfFabric" x1="0" y1="0" x2="1" y2="0">
      <stop offset="0%" stop-color="#B5563C"/>
      <stop offset="100%" stop-color="#8E4230"/>
    </linearGradient>
  </defs>
  <rect width="400" height="400" fill="url(#scarfBg)"/>
  <ellipse cx="200" cy="330" rx="130" ry="16" fill="#254441" opacity="0.12"/>

  <!-- Bufanda doblada en capas -->
  <g>
    <rect x="90" y="130" width="220" height="34" rx="17" fill="url(#scarfFabric)"/>
    <rect x="100" y="170" width="200" height="34" rx="17" fill="#C9962B"/>
    <rect x="90" y="210" width="220" height="34" rx="17" fill="url(#scarfFabric)"/>
    <rect x="100" y="250" width="200" height="34" rx="17" fill="#5F7350"/>
    <!-- flecos -->
    <g stroke="#8E4230" stroke-width="3">
      <line x1="95" y1="284" x2="90" y2="300"/>
      <line x1="115" y1="284" x2="112" y2="302"/>
      <line x1="135" y1="284" x2="134" y2="300"/>
      <line x1="155" y1="284" x2="156" y2="303"/>
      <line x1="175" y1="284" x2="178" y2="300"/>
    </g>
    <!-- líneas de textura -->
    <line x1="90" y1="147" x2="310" y2="147" stroke="#F1E7D6" stroke-width="2" opacity="0.4"/>
    <line x1="100" y1="187" x2="300" y2="187" stroke="#F1E7D6" stroke-width="2" opacity="0.4"/>
    <line x1="90" y1="227" x2="310" y2="227" stroke="#F1E7D6" stroke-width="2" opacity="0.4"/>
  </g>
</svg>
